<svg xmlns="http://www.w3.org/2000/svg"  viewBox="0 0 50 50" width="50px" height="50px"><path d="M 17.910156 2.1503906 L 35.210938 14.019531 L 43.5 6.4296875 L 17.910156 2.1503906 z M 16.660156 3.7207031 L 16.660156 10.919922 C 17.125156 10.877922 23.916375 10.336844 28.609375 16.089844 C 28.609375 16.089844 28.849922 16.320703 28.919922 16.470703 C 28.919922 16.480703 28.929688 16.490234 28.929688 16.490234 C 32.830688 21.655234 31.577703 27.480234 31.470703 27.990234 L 44.289062 22.640625 C 44.659063 22.490625 44.910156 22.120703 44.910156 21.720703 L 44.910156 7.8496094 L 35.970703 16.029297 C 35.780703 16.209297 35.540781 16.300781 35.300781 16.300781 C 35.100781 16.300781 34.900469 16.239141 34.730469 16.119141 L 16.660156 3.7207031 z M 16.660156 12.919922 C 10.450156 13.429922 5.5390625 18.66 5.5390625 25 C 5.5390625 31.68 10.980156 37.119141 17.660156 37.119141 C 19.680156 37.119141 21.579766 36.620234 23.259766 35.740234 C 24.109766 35.300234 24.899141 34.760859 25.619141 34.130859 C 27.199141 32.760859 28.419141 30.990703 29.119141 28.970703 L 29.119141 28.960938 L 18.050781 33.580078 C 17.920781 33.630078 17.790156 33.650391 17.660156 33.650391 C 17.470156 33.650391 17.279375 33.600234 17.109375 33.490234 C 16.829375 33.300234 16.660156 32.990391 16.660156 32.650391 L 16.660156 12.919922 z M 18.660156 12.919922 L 18.660156 15.990234 L 21 15.960938 L 21 13.349609 C 20.25 13.129609 19.460156 12.989922 18.660156 12.919922 z M 23 14.130859 L 23 15.939453 L 25 15.919922 L 25 15.359375 C 24.38 14.889375 23.71 14.470859 23 14.130859 z M 27 17.890625 L 27 20.910156 L 29.070312 20.890625 C 28.680312 19.810625 28.140703 18.800625 27.470703 17.890625 L 27 17.890625 z M 25 17.919922 L 23 17.939453 L 23 20.949219 L 25 20.929688 L 25 17.919922 z M 21 17.960938 L 18.660156 17.990234 L 18.660156 20.990234 L 21 20.970703 L 21 17.960938 z M 29.599609 22.880859 L 27 22.910156 L 27 25.910156 L 29.75 25.880859 C 29.78 25.590859 29.789062 25.3 29.789062 25 C 29.789063 24.28 29.729609 23.570859 29.599609 22.880859 z M 25 22.929688 L 23 22.949219 L 23 25.949219 L 25 25.929688 L 25 22.929688 z M 21 22.970703 L 18.660156 22.990234 L 18.660156 25.990234 L 21 25.970703 L 21 22.970703 z M 25 27.929688 L 23 27.949219 L 23 29.339844 L 25 28.509766 L 25 27.929688 z M 21 27.970703 L 18.660156 27.990234 L 18.660156 31.150391 L 21.019531 30.169922 C 21.009531 30.119922 21 30.06 21 30 L 21 27.970703 z M 26.939453 35.640625 C 26.179453 36.300625 25.350938 36.889141 24.460938 37.369141 L 34.224609 49.460938 C 34.524609 49.810937 34.955 50 35.375 50 C 35.715 50 36.065703 49.880625 36.345703 49.640625 C 36.975703 49.110625 37.055391 48.159297 36.525391 47.529297 L 26.939453 35.640625 z"/></svg>